{"title":"Tu Mera 22 Main Tera 22 [2013] [500MB] HD-SCAM Sohi","uid":8079730,"size":507061076,"categoryP":"video","categoryS":"movies","magnet":"?xt=urn:btih:96a940b40262e912a4b8323d9391a5ae7781e951&amp;dn=Tu+Mera+22+Main+Tera+22+%5B2013%5D+%5B500MB%5D+HD-SCAM+Sohi&amp;tr=udp%3A%2F%2Ftracker.openbittorrent.com%3A80&amp;tr=udp%3A%2F%2Fopen.demonii.com%3A1337&amp;tr=udp%3A%2F%2Ftracker.coppersurfer.tk%3A6969&amp;tr=udp%3A%2F%2Fexodus.desync.com%3A6969","seeders":1,"leechers":0,"uploader":"cooljatt","files":4,"time":1359472361,"description":"[QUOTE]Format : MPEG-PS\nFile size : 484 MiB\nDuration : 1h 38mn\nOverall bit rate mode : Variable\nOverall bit rate : 687 Kbps\n\nVideo\nID : 224 (0xE0)\nFormat : MPEG Video\nFormat version : Version 2\nFormat profile : Main@Main\nFormat settings, BVOP : Yes\nFormat settings, Matrix : Default\nFormat settings, GOP : M=3, N=15\nDuration : 1h 38mn\nBit rate mode : Variable\nBit rate : 609 Kbps\nMaximum bit rate : 600 Kbps\nWidth : 480 pixels\nHeight : 264 pixels\nDisplay aspect ratio : 16:9\nFrame rate : 23.976 fps\nColor space : YUV\nChroma subsampling : 4:2:0\nBit depth : 8 bits\nScan type : Progressive\nCompression mode : Lossy\nBits/(Pixel*Frame) : 0.200\nStream size : 429 MiB (89%)\n\nAudio\nID : 192 (0xC0)\nFormat : MPEG Audio\nFormat version : Version 2\nFormat profile : Layer 3\nDuration : 1h 38mn\nBit rate mode : Constant\nBit rate : 64.0 Kbps\nChannel(s) : 2 channels\nSampling rate : 22.05 KHz\nCompression mode : Lossy\nDelay relative to video : 26ms\nStream size : 45.1 MiB (9%)[/QUOTE]\n\n[IMG    &lt;a href=&quot; http://t.imgbox.com/adjebrp3.jpg&quot; rel=&quot;nofollow&quot; target=&quot;_NEW&quot;&gt; http://t.imgbox.com/adjebrp3.jpg&lt;/a&gt;\n[IMG]   &lt;a href=&quot; http://t.imgbox.com/acuizRwR.jpg&quot; rel=&quot;nofollow&quot; target=&quot;_NEW&quot;&gt; http://t.imgbox.com/acuizRwR.jpg&lt;/a&gt;\n[IMG]  &lt;a href=&quot; http://t.imgbox.com/acuj8ILd.jpg&quot; rel=&quot;nofollow&quot; target=&quot;_NEW&quot;&gt; http://t.imgbox.com/acuj8ILd.jpg&lt;/a&gt;\n[IMG]       &lt;a href=&quot; http://t.imgbox.com/acxgobdX.jpg&quot; rel=&quot;nofollow&quot; target=&quot;_NEW&quot;&gt; http://t.imgbox.com/acxgobdX.jpg&lt;/a&gt;\n[IMG]      &lt;a href=&quot; http://t.imgbox.com/act3Qp79.jpg&quot; rel=&quot;nofollow&quot; target=&quot;_NEW&quot;&gt; http://t.imgbox.com/act3Qp79.jpg&lt;/a&gt;\n[IMG]   &lt;a href=&quot; http://t.imgbox.com/actZCi4d.jpg&quot; rel=&quot;nofollow&quot; target=&quot;_NEW&quot;&gt; http://t.imgbox.com/actZCi4d.jpg&lt;/a&gt;\n","torrent":{"xt":"urn:btih:96a940b40262e912a4b8323d9391a5ae7781e951","amp;dn":"Tu+Mera+22+Main+Tera+22+%5B2013%5D+%5B500MB%5D+HD-SCAM+Sohi","amp;tr":["udp%3A%2F%2Ftracker.openbittorrent.com%3A80","udp%3A%2F%2Fopen.demonii.com%3A1337","udp%3A%2F%2Ftracker.coppersurfer.tk%3A6969","udp%3A%2F%2Fexodus.desync.com%3A6969"],"infoHash":"96a940b40262e912a4b8323d9391a5ae7781e951","infoHashBuffer":{"type":"Buffer","data":[150,169,64,180,2,98,233,18,164,184,50,61,147,145,165,174,119,129,233,81]},"announce":[],"urlList":[]}}